<?xml version="1.0" encoding="UTF-8" standalone="no"?>
<svg
   viewBox="0 0 120 120"
   version="1.1"
   id="svg36"
   sodipodi:docname="campaigns.svg"
   inkscape:version="1.1.2 (0a00cf5339, 2022-02-04)"
   xmlns:inkscape="http://www.inkscape.org/namespaces/inkscape"
   xmlns:sodipodi="http://sodipodi.sourceforge.net/DTD/sodipodi-0.dtd"
   xmlns:xlink="http://www.w3.org/1999/xlink"
   xmlns="http://www.w3.org/2000/svg"
   xmlns:svg="http://www.w3.org/2000/svg">
  <sodipodi:namedview
     id="namedview38"
     pagecolor="#ffffff"
     bordercolor="#666666"
     borderopacity="1.0"
     inkscape:pageshadow="2"
     inkscape:pageopacity="0.0"
     inkscape:pagecheckerboard="0"
     showgrid="false"
     inkscape:zoom="7.25"
     inkscape:cx="60"
     inkscape:cy="60"
     inkscape:window-width="2520"
     inkscape:window-height="1048"
     inkscape:window-x="0"
     inkscape:window-y="0"
     inkscape:window-maximized="1"
     inkscape:current-layer="svg36" />
  <!-- Campaigns Symbol: Growing tree/network with branches and leaves in color -->
  <defs
     id="defs12">
    <!-- Gradient for the trunk and branches -->
    <linearGradient
       id="trunkGradient"
       x1="0"
       y1="1"
       x2="0"
       y2="0">
      <stop
         offset="0%"
         style="stop-color:#8B5A2B; stop-opacity:1"
         id="stop2" />
      <stop
         offset="100%"
         style="stop-color:#A0522D; stop-opacity:1"
         id="stop4" />
    </linearGradient>
    <!-- Gradient for leaves -->
    <linearGradient
       id="leafGradient"
       x1="0"
       y1="0"
       x2="1"
       y2="1">
      <stop
         offset="0%"
         style="stop-color:#66CDAA; stop-opacity:1"
         id="stop7" />
      <stop
         offset="100%"
         style="stop-color:#2E8B57; stop-opacity:1"
         id="stop9" />
    </linearGradient>
    <linearGradient
       inkscape:collect="always"
       xlink:href="#leafGradient"
       id="linearGradient25753"
       x1="52.122626"
       y1="57.330774"
       x2="63.314"
       y2="68.522147"
       gradientTransform="matrix(1.3983116,0,0,0.7151482,-0.57250135,-1.198137)"
       gradientUnits="userSpaceOnUse" />
    <linearGradient
       inkscape:collect="always"
       xlink:href="#leafGradient"
       id="linearGradient25892"
       x1="47.777369"
       y1="21.405284"
       x2="64.386666"
       y2="38.014581"
       gradientTransform="matrix(1.0861309,0,0,0.92069934,-0.34326172,0.29473246)"
       gradientUnits="userSpaceOnUse" />
  </defs>
  <!-- Tree Trunk -->
  <!-- Branches -->
  <g
     fill="none"
     stroke="url(#trunkGradient)"
     stroke-width="3"
     stroke-linecap="round"
     id="g24">
    <path
       d="M60,60 Q75,55 90,60"
       id="path16" />
    <path
       d="M60,45 Q70,40 80,45"
       id="path18" />
    <path
       d="M60,60 Q45,55 30,60"
       id="path20" />
    <path
       d="M60,45 Q50,40 40,45"
       id="path22" />
  </g>
  <!-- Leaves -->
  <path
     id="circle26"
     style="fill:url(#leafGradient)"
     d="M 97.896333,62.86595 C 97.896333,65.627374 92.761424,65 90,65 87.238576,65 76.253763,60.108407 76.253763,57.346983 76.253763,54.585559 87.238576,55 90,55 c 2.761424,0 7.896333,5.104526 7.896333,7.86595 z"
     sodipodi:nodetypes="sssss" />
  <path
     id="circle28"
     style="fill:url(#leafGradient)"
     d="M 40.543364,59.003359 C 40.543364,61.764783 32.761424,65 30,65 c -2.761424,0 -9.925226,-2.238037 -9.925226,-4.999461 0,-2.761424 8.1291,-6.616603 10.890524,-6.616603 2.761424,0 9.578066,2.857999 9.578066,5.619423 z"
     sodipodi:nodetypes="sssss" />
  <path
     id="circle30"
     style="fill:url(#linearGradient25753)"
     d="m 87.960197,45.771905 c 0,2.209139 -6.323559,2.029958 -8.532698,2.029958 -2.209139,0 -7.116329,-1.203989 -7.116329,-3.413128 0,-2.209139 4.90719,-4.586872 7.116329,-4.586872 2.209139,0 8.532698,3.760903 8.532698,5.970042 z"
     sodipodi:nodetypes="sssss" />
  <path
     id="circle32"
     style="fill:url(#leafGradient)"
     d="M 48.860613,45.417417 C 48.860613,47.626556 42.209139,49 40,49 c -2.209139,0 -8.676177,-0.441256 -8.676177,-2.650395 0,-2.209139 6.641237,-7.428193 8.850376,-7.428193 2.209139,0 8.686414,4.286866 8.686414,6.496005 z"
     sodipodi:nodetypes="sssss" />
  <path
     style="fill:#9c542d;fill-opacity:1;stroke:none;stroke-width:1px;stroke-linecap:butt;stroke-linejoin:miter;stroke-opacity:1"
     d="m 57.904087,34.168769 4.659654,-0.129333 3.912721,56.709427 -13.53791,-0.101503 z"
     id="path927"
     sodipodi:nodetypes="ccccc" />
  <path
     id="circle34"
     style="fill:url(#linearGradient25892)"
     d="m 69.589086,31.431199 c 0,2.761424 -7.170924,3.863534 -9.932348,3.863534 -2.761424,0 -8.107523,-1.423904 -8.107523,-4.185328 0,-2.761424 6.035376,-11.106841 8.796799,-11.106841 2.761424,0 9.243072,8.667211 9.243072,11.428635 z"
     sodipodi:nodetypes="sssss" />
</svg>
